Coordinates
version=1
nRows=17
nColumns=24
inDegrees=yes

Units are S.I. units (second, meters, Newtons, ...)
Angles are in degrees.

endheader
time	pelvis_tilt	pelvis_list	pelvis_rotation	pelvis_tx	pelvis_ty	pelvis_tz	hip_flexion_r	hip_adduction_r	hip_rotation_r	knee_angle_r	ankle_angle_r	subtalar_angle_r	mtp_angle_r	hip_flexion_l	hip_adduction_l	hip_rotation_l	knee_angle_l	ankle_angle_l	subtalar_angle_l	mtp_angle_l	lumbar_extension	lumbar_bending	lumbar_rotation
      4.90000000	      3.88334070	     -0.10020816	      4.28487227	     -1.82586058	      0.90738196	      0.25295320	      4.17935871	      4.69271371	      3.50107784	    -14.16525876	     16.44558884	     -3.24062419	      0.00000000	     16.85510840	      1.71165092	     -2.62024154	    -65.63505118	      3.56025451	     -8.85251106	      0.00000000	    -21.82031493	      4.98452192	     -8.08997676
      4.91000000	      3.81604068	      0.00552565	      3.80997264	     -1.81483979	      0.90822379	      0.25353011	      3.10575277	      4.63884510	      4.01388511	    -13.43531312	     16.68491020	     -3.22570164	      0.00000000	     18.11217148	      1.72787359	     -3.01597117	    -64.41467361	      4.51510101	     -8.49740951	      0.00000000	    -21.92206248	      4.63271477	     -7.58226570
      4.92000000	      3.76121889	      0.07022323	      3.37736121	     -1.80385483	      0.90883025	      0.25395377	      2.03954733	      4.60511757	      4.49297605	    -12.73491393	     16.93681541	     -3.29156179	      0.00000000	     19.25978410	      1.70847192	     -3.33562034	    -62.90633727	      5.43748228	     -8.02990300	      0.00000000	    -22.05191962	      4.37016393	     -7.10536601
      4.93000000	      3.69085135	      0.12688702	      2.94002233	     -1.79291045	      0.90920109	      0.25430289	      1.03753206	      4.55394534	      4.90826131	    -12.11620461	     17.25422431	     -3.20501756	      0.00000000	     20.30916061	      1.68345450	     -3.61895866	    -61.08713324	      6.12224712	     -7.59435910	      0.00000000	    -22.18012117	      4.11871741	     -6.63052187
      4.94000000	      3.65573229	      0.12595918	      2.53176486	     -1.78197385	      0.90937617	      0.25454563	      0.00976310	      4.55056406	      5.32554736	    -11.51487900	     17.50752801	     -3.17289227	      0.00000000	     21.21014131	      1.59469940	     -3.84733519	    -58.98638115	      6.80246808	     -7.13067152	      0.00000000	    -22.35601940	      3.95540307	     -6.23871584
      4.95000000	      3.57932028	      0.10250719	      2.10730538	     -1.77106520	      0.90928684	      0.25472090	     -0.91862104	      4.55299961	      5.73603005	    -11.01286707	     17.84165357	     -3.13352363	      0.00000000	     22.02144817	      1.50720458	     -4.00428464	    -56.56664040	      7.21535738	     -6.93891956	      0.00000000	    -22.49026887	      3.81646729	     -5.77344617
      4.96000000	      3.47138077	      0.03063789	      1.66380907	     -1.76014561	      0.90893964	      0.25486050	     -1.77869786	      4.59057686	      6.13460559	    -10.57164099	     18.20888336	     -3.05046906	      0.00000000	     22.73068806	      1.36018154	     -4.14030811	    -53.84857550	      7.48241416	     -7.03695653	      0.00000000	    -22.57900891	      3.73143783	     -5.33299449
      4.97000000	      3.43982792	     -0.03973091	      1.21632628	     -1.74922098	      0.90854843	      0.25492860	     -2.71681382	      4.61710699	      6.61685106	    -10.15104047	     18.48818864	     -3.04111970	      0.00000000	     23.18440016	      1.24985820	     -4.16396965	    -50.77681403	      7.36820760	     -7.54796495	      0.00000000	    -22.76824660	      3.65036129	     -4.84289869
      4.98000000	      3.35436127	     -0.16728578	      0.77941907	     -1.73823409	      0.90787643	      0.25491990	     -3.59199308	      4.69024143	      7.11635738	     -9.74633469	     18.74738560	     -3.13898130	      0.00000000	     23.54694158	      1.09590288	     -4.09829661	    -47.41783199	      7.01667868	     -8.62753580	      0.00000000	    -22.86644941	      3.64443638	     -4.39261533
      4.99000000	      3.24949319	     -0.34329741	      0.31819466	     -1.72718862	      0.90700443	      0.25493970	     -4.42742348	      4.80461791	      7.62401947	     -9.39042813	     19.03201492	     -3.15808144	      0.00000000	     23.77366893	      0.87858726	     -3.97168861	    -43.79302489	      6.38315106	    -10.01542191	      0.00000000	    -22.92556593	      3.66817882	     -3.88916146
      5.00000000	      3.14004508	     -0.58549794	     -0.12445284	     -1.71605358	      0.90593714	      0.25489033	     -5.25916383	      4.97766315	      8.11380890	     -9.05127071	     19.30606527	     -3.19912176	      0.00000000	     23.86271510	      0.59683654	     -3.73670432	    -39.95157173	      5.52989626	    -11.69669205	      0.00000000	    -22.96139397	      3.77850947	     -3.37286978
      5.01000000	      3.03287185	     -0.91304649	     -0.55115686	     -1.70479952	      0.90467625	      0.25481506	     -6.10608792	      5.23377654	      8.59315225	     -8.71429794	     19.55441866	     -3.25445430	      0.00000000	     23.83213726	      0.20719066	     -3.42884224	    -35.97662895	      4.57100315	    -13.41892931	      0.00000000	    -22.97446008	      3.97997211	     -2.84586155
      5.02000000	      2.93122600	     -1.34115844	     -0.94802418	     -1.69342008	      0.90322379	      0.25469139	     -6.98210767	      5.58874163	      9.06145863	     -8.36485254	     19.75812543	     -3.34380029	      0.00000000	     23.72033006	     -0.31449588	     -3.08029386	    -31.96850439	      3.64634361	    -14.92118125	      0.00000000	    -22.97858029	      4.30075373	     -2.30765351
      5.03000000	      2.84626176	     -1.85228006	     -1.31981084	     -1.68189448	      0.90161981	      0.25451484	     -7.90006687	      6.01984766	      9.50286488	     -8.00932961	     19.90670365	     -3.42069909	      0.00000000	     23.55223251	     -0.95987608	     -2.76821217	    -28.02159357	      2.94625716	    -15.84390835	      0.00000000	    -22.98944513	      4.72315610	     -1.77582767
      5.04000000	      2.78372581	     -2.44512221	     -1.67241270	     -1.67022408	      0.89988877	      0.25431980	     -8.87124189	      6.52539574	      9.93438567	     -7.64093645	     19.99488499	     -3.50878450	      0.00000000	     23.36611526	     -1.72838189	     -2.54472431	    -24.23727058	      2.56115741	    -16.00705637	      0.00000000	    -23.01128976	      5.22516690	     -1.25551881
      5.05000000	      2.73931541	     -3.07403164	     -2.01456562	     -1.65839707	      0.89807025	      0.25407269	     -9.87045829	      7.04577321	     10.24222061	     -7.29108805	     20.12483974	     -3.42085308	      0.00000000	     23.19035826	     -2.55870126	     -2.46758999	    -20.68380235	      2.51697919	    -15.32315171	      0.00000000	    -23.04531719	      5.76778695	     -0.70636810
      5.06000000	      2.74829205	     -3.74116763	     -2.31598800	     -1.64644948	      0.89623590	      0.25375735	    -10.97385870	      7.59338007	     10.70002638	     -6.89828164	     20.05160955	     -3.58567651	      0.00000000	     23.03383633	     -3.43571325	     -2.57250432	    -17.46153850	      2.92819283	    -13.58012611	      0.00000000	    -23.14854229	      6.35616511	     -0.20225658
